# xmcd CD database file
#
# Track frame offsets:
#	150
#	28147
#	66846
#	95198
#	117883
#	150380
#	187475
#	226880
#	255189
#
# Disc length: 3862 seconds
#
# Revision: 0
# Processed by: cddbd v1.5.2PL0 Copyright (c) Steve Scherf et al.
# Submitted via: CDex 1.51
#
DISCID=750f1409
DTITLE=Alan Barnes - Barnestorming
DYEAR=2006
DGENRE=Jazz
TTITLE0=I Hear Music
TTITLE1=Barnestorming
TTITLE2=Twins
TTITLE3=If There's A Sky Above
TTITLE4=In The Doghouse
TTITLE5=This Is Always
TTITLE6=Baby 'M'
TTITLE7=Sweet Lorraine
TTITLE8=With A Mellotone
EXTD=YEAR: 2006
EXTT0=
EXTT1=
EXTT2=
EXTT3=
EXTT4=
EXTT5=
EXTT6=
EXTT7=
EXTT8=
PLAYORDER=
